<svg width="59" height="50" viewBox="0 0 59 50" fill="none" xmlns="http://www.w3.org/2000/svg">
<g id="Group 1000004219">
<path id="Vector" d="M58.2516 16.4454C58.2516 14.6903 56.839 13.2676 55.0965 13.2676C53.354 13.2676 51.9414 14.6903 51.9414 16.4454C51.9414 18.2005 53.354 19.6233 55.0965 19.6233C56.839 19.6233 58.2516 18.2005 58.2516 16.4454Z" fill="#FD6804"/>
<path id="Vector_2" d="M49.2627 27.2734C49.2792 27.2784 49.2973 27.2817 49.3154 27.285C49.5246 27.3149 54.4739 28.0003 56.2088 25.1294C56.3274 24.9336 56.2648 24.6781 56.0704 24.5586C55.876 24.4391 55.6223 24.5022 55.5036 24.698C54.0488 27.1058 49.4785 26.4703 49.4324 26.4636C49.2067 26.4304 48.9991 26.5881 48.9661 26.8154C48.9365 27.0245 49.0666 27.2187 49.2627 27.2751V27.2734Z" fill="black"/>
<path id="Vector_3" d="M6.99298 27.9122C3.78682 29.9052 2.51161 35.4975 4.00101 39.7291C10.2354 50.6981 28.3635 51.9742 39.1979 47.7973C56.4775 41.1877 51.3701 14.6614 34.6259 11.4803C25.2018 9.41095 12.9967 9.91377 9.97836 21.2959C9.67192 22.2335 9.37865 23.2292 9.26497 24.2298C9.09362 25.7466 8.27314 27.114 6.99298 27.9105V27.9122Z" fill="#FD6804"/>
<path id="Vector_4" d="M1.16047 45.2287C1.16047 45.2287 1.14729 45.2287 1.1407 45.2287C0.913338 45.2187 0.737049 45.0229 0.748582 44.7956C0.9051 41.4501 4.00581 40.1126 4.13762 40.0579C4.34851 39.9699 4.58905 40.0695 4.67637 40.2819C4.76369 40.4943 4.66484 40.7366 4.45395 40.8245C4.33533 40.8743 1.70252 42.0243 1.57072 44.8354C1.56083 45.0578 1.37795 45.2304 1.15883 45.2304L1.16047 45.2287Z" fill="black"/>
<path id="Vector_5" d="M49.4787 46.594C49.4787 46.594 49.4919 46.594 49.4985 46.594C49.7259 46.5973 49.9137 46.4148 49.917 46.1858C49.968 42.837 46.9563 41.3086 46.8278 41.2439C46.6235 41.1427 46.3764 41.2273 46.2759 41.4331C46.1753 41.6389 46.2594 41.8878 46.4637 41.989C46.579 42.0471 49.136 43.3597 49.0932 46.1725C49.0899 46.3949 49.2612 46.5791 49.4787 46.5923V46.594Z" fill="black"/>
<path id="Vector_6" d="M17.7479 25.7916C17.9357 25.8712 18.0411 26.0803 17.9851 26.2845C17.9258 26.5052 17.6984 26.6346 17.4793 26.5749C17.4348 26.5632 12.9732 25.3651 11.2367 27.5689C11.095 27.7481 10.8363 27.7796 10.6584 27.6352C10.4805 27.4925 10.4508 27.232 10.5925 27.0528C12.6668 24.4209 17.4941 25.7186 17.6984 25.775C17.7166 25.78 17.733 25.785 17.7495 25.7933L17.7479 25.7916Z" fill="black"/>
<path id="Vector_7" d="M17.2788 18.4001C17.0185 18.9809 17.2228 19.5982 17.7286 19.9666C18.1685 20.2885 18.7748 20.3665 19.302 20.4047C20.391 20.4843 21.541 20.0346 21.9266 18.9328C22.0155 18.6789 21.8261 18.3885 21.5806 18.3204C21.3071 18.2441 21.0616 18.4134 20.9726 18.6689C20.9496 18.7369 20.9693 18.6855 20.9512 18.7237C20.9347 18.7552 20.9183 18.7867 20.9001 18.8166C20.8491 18.9029 20.8425 18.9079 20.8029 18.951C20.6827 19.0805 20.6332 19.1219 20.4833 19.2082C20.2213 19.3592 19.8589 19.4256 19.5047 19.419C19.1504 19.4123 18.7665 19.3725 18.4403 19.2381C18.3612 19.2049 18.2311 19.1136 18.2014 19.0688C18.1537 18.9991 18.1569 19.0157 18.1372 18.9211C18.1471 18.9742 18.1355 18.9278 18.1372 18.8996C18.1256 18.9975 18.1619 18.8282 18.1289 18.9029C18.2393 18.6573 18.1981 18.3669 17.951 18.2225C17.7401 18.0981 17.3859 18.1545 17.2755 18.4017L17.2788 18.4001Z" fill="black"/>
<path id="Vector_8" d="M28.2662 18.8666C28.052 19.4656 28.3041 20.0647 28.8362 20.3933C29.3008 20.6787 29.9104 20.7086 30.4393 20.7052C31.5316 20.6969 32.6421 20.1576 32.9403 19.0275C33.0095 18.767 32.797 18.4932 32.5482 18.4451C32.2697 18.392 32.0374 18.5795 31.9699 18.84C31.9518 18.9097 31.9699 18.8566 31.9534 18.8964C31.9402 18.9296 31.9254 18.9612 31.9106 18.9943C31.8661 19.084 31.8611 19.0906 31.8249 19.1354C31.7145 19.2748 31.67 19.3196 31.5267 19.4175C31.2779 19.5884 30.922 19.6847 30.5678 19.7062C30.2136 19.7278 29.828 19.7195 29.4936 19.61C29.4112 19.5834 29.2761 19.5021 29.2432 19.4606C29.1904 19.3943 29.1937 19.4109 29.1674 19.3179C29.1822 19.3694 29.1657 19.3246 29.1674 19.2964C29.1624 19.3943 29.1871 19.2233 29.1591 19.2997C29.2498 19.0474 29.1871 18.7604 28.9285 18.6342C28.7077 18.5264 28.3584 18.6127 28.2678 18.8666H28.2662Z" fill="black"/>
<path id="Vector_9" d="M21.6397 21.9412C21.5738 22.59 22.3547 22.8439 22.8473 22.9518C23.3762 23.0679 23.9215 23.0862 24.4619 23.0746C25.3582 23.0563 26.4538 23.0513 27.0766 22.2897C27.2463 22.0822 27.2776 21.7885 27.0766 21.586C26.902 21.4101 26.5477 21.377 26.378 21.586C26.1853 21.8217 25.9859 21.9146 25.6762 21.9843C25.3664 22.054 25.0287 22.0623 24.6811 22.0723C24.2692 22.0855 23.8523 22.0922 23.4421 22.0474C23.2592 22.0275 23.078 21.9893 22.9 21.9395C22.8078 21.913 22.7188 21.8731 22.6265 21.8482C22.5079 21.8184 22.6414 21.8117 22.6265 21.9412C22.6529 21.674 22.3794 21.4433 22.1323 21.4433C21.8423 21.4433 21.6644 21.6723 21.638 21.9412H21.6397Z" fill="black"/>
<path id="Vector_10" d="M13.3806 3.82513L14.5405 11.4271C14.5817 11.6926 14.8041 11.8884 15.071 11.8934L42.3233 12.436C42.5935 12.441 42.8258 12.2485 42.8736 11.9813L44.3696 3.44512C44.4553 2.9589 43.9116 2.61373 43.5129 2.90082L37.6986 7.07765C37.4301 7.27181 37.0528 7.18219 36.8979 6.88681L35.2075 3.6791C35.0263 3.33559 34.56 3.28415 34.3096 3.57953L31.942 6.36575C31.6834 6.67108 31.1973 6.60305 31.0293 6.23797L28.3207 0.320372C28.1329 -0.0911715 27.5579 -0.111085 27.342 0.288842L24.3006 5.95254C24.1095 6.30766 23.6169 6.34251 23.3797 6.01726L21.5245 3.48826C21.2889 3.16799 20.8029 3.19786 20.6085 3.54468L18.9345 6.52339C18.7648 6.82707 18.3612 6.89677 18.0992 6.66777L14.2785 3.32398C13.8946 2.98711 13.3015 3.31734 13.379 3.82347L13.3806 3.82513Z" fill="#FFBB00"/>
<path id="Vector_11" d="M13.1748 11.3785L13.4055 14.7987C13.4219 15.0542 13.6328 15.255 13.8882 15.2583L42.9924 15.6516C43.2527 15.6549 43.4702 15.4525 43.4883 15.192L43.7486 11.2624C43.7667 10.977 43.5427 10.7347 43.2576 10.7363L13.6641 10.8542C13.3808 10.8542 13.1583 11.0964 13.1781 11.3802L13.1748 11.3785Z" fill="#B997E4"/>
<path id="Vector_12" d="M57.6194 17.6446L56.8433 18.3051C56.7017 18.4262 56.4891 18.413 56.3623 18.2752L55.1282 16.9377C54.9635 16.7585 54.6735 16.7983 54.5615 17.0157L53.9288 18.2487C53.8349 18.4329 53.6026 18.4943 53.4296 18.3831L52.5482 17.8122C52.2829 17.6413 51.9468 17.8819 52.0193 18.1906L54.3259 21.4863H54.344L55.6802 35.7094C55.7082 36.0147 56.1563 35.9981 56.1629 35.6928L56.5089 21.5145H56.5122L58.1861 17.9832C58.252 17.6562 57.8714 17.4289 57.6177 17.6446H57.6194Z" fill="#FFBB00"/>
<path id="Vector_13" d="M29.4161 7.96553C29.4161 6.95739 28.6047 6.14014 27.6038 6.14014C26.6029 6.14014 25.7915 6.95739 25.7915 7.96553C25.7915 8.97367 26.6029 9.79093 27.6038 9.79093C28.6047 9.79093 29.4161 8.97367 29.4161 7.96553Z" fill="#FD6804"/>
</g>
</svg>
