<svg width="43" height="50" viewBox="0 0 43 50" fill="none" xmlns="http://www.w3.org/2000/svg">
<g id="beat" clip-path="url(#clip0_1510_1325)">
<path id="Vector" d="M6.39187 29.387C4.65929 32.624 -0.15703 34.1604 0.899979 38.9377C5.61382 51.2196 26.3707 48.6373 34.3637 45.7591C50.1999 40.058 41.9431 8.33304 28.1583 5.41858C20.4119 3.46034 10.2442 4.56543 7.24773 17.7215C6.95359 18.8075 6.59303 22.453 6.45639 23.6039C6.24955 25.3464 6.84352 28.5415 6.39187 29.387Z" fill="#FFBB00"/>
<path id="Vector_2" d="M13.1266 25.5678C14.9324 25.5678 16.3963 24.0955 16.3963 22.2793C16.3963 20.4631 14.9324 18.9907 13.1266 18.9907C11.3208 18.9907 9.85693 20.4631 9.85693 22.2793C9.85693 24.0955 11.3208 25.5678 13.1266 25.5678Z" fill="white"/>
<path id="Vector_3" d="M13.0603 25.2871C14.515 25.2871 15.6942 24.101 15.6942 22.6379C15.6942 21.1748 14.515 19.9888 13.0603 19.9888C11.6055 19.9888 10.4263 21.1748 10.4263 22.6379C10.4263 24.101 11.6055 25.2871 13.0603 25.2871Z" fill="black"/>
<path id="Vector_4" d="M24.8029 25.5678C26.6087 25.5678 28.0726 24.0955 28.0726 22.2793C28.0726 20.4631 26.6087 18.9907 24.8029 18.9907C22.9971 18.9907 21.5332 20.4631 21.5332 22.2793C21.5332 24.0955 22.9971 25.5678 24.8029 25.5678Z" fill="white"/>
<path id="Vector_5" d="M24.7385 25.2871C26.1932 25.2871 27.3725 24.101 27.3725 22.6379C27.3725 21.1748 26.1932 19.9888 24.7385 19.9888C23.2838 19.9888 22.1045 21.1748 22.1045 22.6379C22.1045 24.101 23.2838 25.2871 24.7385 25.2871Z" fill="black"/>
<path id="Vector_6" d="M16.6792 25.7795L21.2337 25.6821L19.1026 28.963L16.647 25.9093" fill="white"/>
<path id="Vector_7" d="M19.1026 29.4423C18.9603 29.4423 18.8237 29.3775 18.7345 29.2648L16.2789 26.2111C16.1669 26.0717 16.146 25.8866 16.2087 25.7301C16.2333 25.4934 16.4288 25.3083 16.6698 25.3026L21.2242 25.2052C21.3988 25.1957 21.5639 25.2949 21.6493 25.4514C21.7347 25.606 21.729 25.795 21.6322 25.9439L19.5011 29.2248C19.4176 29.3526 19.2791 29.4328 19.1273 29.4404C19.1197 29.4404 19.1121 29.4404 19.1026 29.4404V29.4423ZM17.5219 26.2397L19.0609 28.154L20.3437 26.1786L17.52 26.2397H17.5219Z" fill="black"/>
<path id="Vector_8" d="M17.9125 50.0001C17.9125 50.0001 17.8974 50.0001 17.8898 50.0001C17.6279 49.9887 17.4248 49.7635 17.4381 49.502C17.6184 45.6542 21.1898 44.1159 21.3416 44.0529C21.5846 43.9517 21.8616 44.0663 21.9622 44.3106C22.0628 44.5549 21.9489 44.8335 21.706 44.9347C21.5694 44.9919 18.5369 46.3146 18.3851 49.5478C18.3737 49.8036 18.163 50.002 17.9106 50.002L17.9125 50.0001Z" fill="black"/>
<path id="Vector_9" d="M8.21744 49.5229C8.21744 49.5229 8.20226 49.5229 8.19467 49.5229C7.93279 49.5267 7.71645 49.3167 7.71265 49.0534C7.65383 45.2018 11.1228 43.4439 11.2708 43.3695C11.5061 43.2531 11.7908 43.3504 11.9065 43.5871C12.0223 43.8237 11.9255 44.11 11.6902 44.2265C11.5574 44.2933 8.61216 45.803 8.6615 49.0381C8.66529 49.2938 8.46793 49.5057 8.21744 49.521V49.5229Z" fill="black"/>
<path id="Vector_10" d="M25.0345 35.3093C24.7992 35.3189 24.5904 35.1509 24.5487 34.9123C24.505 34.6528 24.6796 34.4066 24.9377 34.3627C24.9908 34.3531 30.2284 33.4274 30.9818 30.2839C31.0425 30.0282 31.2987 29.8698 31.5549 29.9328C31.8092 29.9938 31.9667 30.2515 31.9041 30.5092C31.0027 34.2672 25.3343 35.2654 25.0933 35.3055C25.0724 35.3093 25.0516 35.3112 25.0326 35.3112L25.0345 35.3093Z" fill="black"/>
<path id="Vector_11" d="M15.2447 35.0173C15.48 35.0269 15.6887 34.8589 15.7305 34.6203C15.7741 34.3608 15.5995 34.1146 15.3415 34.0707C15.2883 34.0611 10.0507 33.1354 9.29734 29.992C9.23662 29.7362 8.98043 29.5778 8.72424 29.6408C8.46995 29.7018 8.31244 29.9595 8.37507 30.2172C9.27647 33.9752 14.9448 34.9734 15.1859 35.0135C15.2067 35.0173 15.2276 35.0192 15.2466 35.0192L15.2447 35.0173Z" fill="black"/>
<path id="Vector_12" d="M16.8024 1.90884L17.6791 5.57529C17.7341 5.80814 17.9505 5.96846 18.1896 5.95129L24.2868 5.51994C24.5051 5.50467 24.6872 5.34435 24.7309 5.12677L25.4406 1.62064C25.5336 1.16257 25.0003 0.84574 24.6455 1.1473L23.56 2.07107C23.3608 2.24094 23.0628 2.22376 22.8863 2.03099L21.1575 0.15673C20.9279 -0.0932985 20.5199 -0.0379486 20.3643 0.265521L19.4781 1.99091C19.3453 2.24857 19.0208 2.33637 18.7797 2.17795L17.5444 1.37824C17.1743 1.13776 16.7018 1.47558 16.8043 1.90693L16.8024 1.90884Z" fill="#FD6804"/>
</g>
<defs>
<clipPath id="clip0_1510_1325">
<rect width="42.25" height="50" fill="white" transform="translate(0.75)"/>
</clipPath>
</defs>
</svg>
