<svg width="49" height="50" viewBox="0 0 49 50" fill="none" xmlns="http://www.w3.org/2000/svg">
<g id="Group 1000004223">
<path id="Vector" d="M27.2509 11.4698L26.5228 10.9766C26.5631 10.9216 27.5108 9.5754 26.2271 6.88521L27.0448 6.53809C28.5593 9.70875 27.3069 11.3999 27.2531 11.4698H27.2509Z" fill="#22F400"/>
<path id="Vector_2" d="M7.59413 24.0459C7.59413 24.0459 5.86009 11.6342 27.8246 10.9865C27.8246 10.9865 46.545 10.1547 44.0112 30.946C43.9238 31.6635 43.8633 32.3832 43.8118 33.1049C43.5116 37.2958 40.3706 53.8412 9.17582 46.5453C9.17582 46.5453 -7.96517 36.5846 7.59413 24.0459Z" fill="#B997E4"/>
<path id="Vector_3" d="M46.7934 27.8182C46.7016 27.8182 46.6075 27.797 46.5201 27.7505C46.249 27.6087 46.1549 27.2848 46.305 27.0308C46.8158 26.1694 47.3199 25.0222 46.8248 24.4507C45.9085 23.3966 42.0282 24.0845 39.799 24.7661C39.5055 24.855 39.1896 24.7026 39.0933 24.4253C38.997 24.148 39.1583 23.8496 39.454 23.7586C40.1194 23.5554 45.9959 21.8261 47.6918 23.7776C48.411 24.6052 48.2743 25.873 47.2841 27.5452C47.181 27.7187 46.9906 27.8161 46.7957 27.8161L46.7934 27.8182Z" fill="black"/>
<path id="Vector_4" d="M35.3832 49.9998C35.2421 49.9998 35.1032 49.9512 34.9934 49.8517C34.7716 49.6485 34.7649 49.3141 34.9799 49.1024C37.6303 46.5138 36.0867 42.3102 36.071 42.2679C35.9679 41.9928 36.118 41.6901 36.4093 41.5906C36.7005 41.4911 37.0209 41.6351 37.124 41.9102C37.1979 42.1071 38.923 46.772 35.7842 49.839C35.6745 49.9469 35.5288 49.9998 35.381 49.9998H35.3832Z" fill="black"/>
<path id="Vector_5" d="M7.14339 49.7709C6.98208 49.7709 6.82302 49.7052 6.711 49.5783C3.83214 46.2827 5.74316 42.3437 5.82606 42.1786C5.95824 41.9141 6.29205 41.7998 6.5721 41.9246C6.85214 42.0495 6.97088 42.3628 6.84094 42.6273C6.77149 42.7692 5.15619 46.1345 7.57578 48.9052C7.77293 49.1295 7.73932 49.464 7.4996 49.6502C7.39431 49.7306 7.26885 49.7709 7.14339 49.7709Z" fill="black"/>
<path id="Vector_6" d="M21.8384 3.26547C21.8384 3.26547 22.1475 8.40245 27.1704 7.57487C27.1704 7.57487 27.7574 2.89083 21.8384 3.26547Z" fill="#22F400"/>
<path id="Vector_7" d="M32.0991 3.327C32.0991 3.327 31.7899 8.46398 26.7671 7.63639C26.7671 7.63639 26.1801 2.95236 32.0991 3.327Z" fill="#22F400"/>
<path id="Vector_8" d="M1.41507 26.0165C1.33666 26.0165 1.25601 26.0017 1.17984 25.9679C0.931156 25.8599 0.807937 25.6017 0.870667 25.3604C0.872907 25.3202 0.872907 25.2651 0.875147 25.1995C0.886349 24.5582 0.913233 23.0575 2.14095 22.4162C3.27905 21.8236 5.00637 22.2088 7.42372 23.5951C7.68808 23.7475 7.77321 24.0714 7.61191 24.3211C7.4506 24.5709 7.10783 24.6513 6.84346 24.4989C4.19984 22.9813 3.10206 23.1231 2.68312 23.3412C2.02221 23.6862 2.00429 24.7191 1.99533 25.2165C1.99085 25.4472 1.98861 25.5763 1.92364 25.7096C1.82954 25.9022 1.62567 26.0165 1.41507 26.0165Z" fill="black"/>
<path id="Vector_9" d="M29.7938 26.2512C26.7604 26.2512 24.2915 23.9187 24.2915 21.0529C24.2915 18.187 26.7604 15.8545 29.7938 15.8545C32.8273 15.8545 35.2961 18.187 35.2961 21.0529C35.2961 23.9187 32.8273 26.2512 29.7938 26.2512ZM29.7938 16.064C26.8836 16.064 24.5155 18.3013 24.5155 21.0507C24.5155 23.8002 26.8836 26.0374 29.7938 26.0374C32.7041 26.0374 35.0721 23.8002 35.0721 21.0507C35.0721 18.3013 32.7041 16.064 29.7938 16.064Z" fill="white"/>
<path id="Vector_10" d="M17.0638 26.4675C14.0304 26.4675 11.5615 24.135 11.5615 21.2692C11.5615 18.4033 14.0304 16.0708 17.0638 16.0708C20.0973 16.0708 22.5662 18.4033 22.5662 21.2692C22.5662 24.135 20.0973 26.4675 17.0638 26.4675ZM17.0638 16.2803C14.1536 16.2803 11.7856 18.5176 11.7856 21.267C11.7856 24.0165 14.1536 26.2538 17.0638 26.2538C19.9741 26.2538 22.3421 24.0165 22.3421 21.267C22.3421 18.5176 19.9741 16.2803 17.0638 16.2803Z" fill="white"/>
<path id="Vector_11" d="M17.4068 24.175C19.1613 24.175 20.5836 22.8313 20.5836 21.1737C20.5836 19.5161 19.1613 18.1724 17.4068 18.1724C15.6523 18.1724 14.23 19.5161 14.23 21.1737C14.23 22.8313 15.6523 24.175 17.4068 24.175Z" fill="white"/>
<path id="Vector_12" d="M17.4068 23.2499C18.6206 23.2499 19.6046 22.3203 19.6046 21.1735C19.6046 20.0268 18.6206 19.0972 17.4068 19.0972C16.193 19.0972 15.209 20.0268 15.209 21.1735C15.209 22.3203 16.193 23.2499 17.4068 23.2499Z" fill="black"/>
<path id="Vector_13" d="M29.088 24.0481C30.8425 24.0481 32.2648 22.7043 32.2648 21.0467C32.2648 19.3892 30.8425 18.0454 29.088 18.0454C27.3334 18.0454 25.9111 19.3892 25.9111 21.0467C25.9111 22.7043 27.3334 24.0481 29.088 24.0481Z" fill="white"/>
<path id="Vector_14" d="M29.0879 23.123C30.3017 23.123 31.2857 22.1934 31.2857 21.0466C31.2857 19.8998 30.3017 18.9702 29.0879 18.9702C27.8741 18.9702 26.8901 19.8998 26.8901 21.0466C26.8901 22.1934 27.8741 23.123 29.0879 23.123Z" fill="black"/>
<path id="Vector_15" d="M22.4791 21.1659L22.3828 20.9754C22.4231 20.9584 23.3753 20.5415 24.4439 20.9542L24.3588 21.151C23.3798 20.7722 22.4881 21.1616 22.4791 21.1659Z" fill="white"/>
<path id="Vector_16" d="M24.0066 26.2711C23.3748 26.2711 22.7251 25.8922 22.071 25.1387C21.8738 24.9123 21.9097 24.58 22.1471 24.3937C22.3868 24.2074 22.7386 24.2392 22.9357 24.4657C23.3793 24.9758 23.7871 25.2446 24.0604 25.2065C24.3203 25.1705 24.5264 24.8276 24.5757 24.7112C24.6922 24.4424 25.0193 24.3111 25.3038 24.4212C25.5883 24.5292 25.7295 24.8339 25.6152 25.1049C25.5726 25.2086 25.1671 26.1145 24.2351 26.2521C24.159 26.2626 24.0806 26.269 24.0044 26.269L24.0066 26.2711Z" fill="black"/>
<path id="Vector_17" d="M27.3829 -0.000488281C27.3829 -0.000488281 30.9137 3.91945 26.6749 6.59483C26.6749 6.59483 22.8282 3.58926 27.3829 -0.000488281Z" fill="#22F400"/>
</g>
</svg>
