<svg width="53" height="50" viewBox="0 0 53 50" fill="none" xmlns="http://www.w3.org/2000/svg">
<g id="Group 1000004224">
<path id="Vector" d="M27.9379 8.51504L27.1945 8.0045C27.2357 7.94753 28.2032 6.55396 26.8926 3.76902L27.7274 3.40967C29.2737 6.692 27.9951 8.44273 27.9402 8.51504H27.9379Z" fill="#22F400"/>
<path id="Vector_2" d="M9.3489 25.01C9.32374 25.01 9.30086 25.01 9.2757 25.0056C8.98293 24.9684 2.11189 24.07 0.856167 19.7995C0.771537 19.5081 0.947659 19.2057 1.25187 19.1246C1.55608 19.0413 1.87173 19.2122 1.95636 19.5037C3.0108 23.0862 9.35805 23.9123 9.42209 23.921C9.73545 23.9605 9.95732 24.2344 9.91615 24.5345C9.87955 24.8106 9.63252 25.0122 9.3489 25.0122V25.01Z" fill="#424242"/>
<path id="Vector_3" d="M9.58204 24.2955C9.58204 24.2955 6.0779 8.63102 28.5026 7.95834C28.5026 7.95834 47.6152 7.09722 45.0283 28.6208C44.9391 29.3636 44.8773 30.1086 44.8247 30.8558C44.5182 35.1943 41.3114 52.3225 9.4631 44.7696C9.4631 44.7696 -6.30552 37.2737 9.57975 24.2933L9.58204 24.2955Z" fill="#4F4891"/>
<path id="Vector_4" d="M17.4939 21.5831C18.7925 21.5831 19.8453 20.5746 19.8453 19.3306C19.8453 18.0866 18.7925 17.0781 17.4939 17.0781C16.1953 17.0781 15.1426 18.0866 15.1426 19.3306C15.1426 20.5746 16.1953 21.5831 17.4939 21.5831Z" fill="white"/>
<path id="Vector_5" d="M17.4939 20.8888C18.3921 20.8888 19.1202 20.1913 19.1202 19.3309C19.1202 18.4704 18.3921 17.7729 17.4939 17.7729C16.5958 17.7729 15.8677 18.4704 15.8677 19.3309C15.8677 20.1913 16.5958 20.8888 17.4939 20.8888Z" fill="#424242"/>
<path id="Vector_6" d="M31.8606 21.5831C33.1592 21.5831 34.212 20.5746 34.212 19.3306C34.212 18.0866 33.1592 17.0781 31.8606 17.0781C30.562 17.0781 29.5093 18.0866 29.5093 19.3306C29.5093 20.5746 30.562 21.5831 31.8606 21.5831Z" fill="white"/>
<path id="Vector_7" d="M31.8606 20.8888C32.7588 20.8888 33.4869 20.1913 33.4869 19.3309C33.4869 18.4704 32.7588 17.7729 31.8606 17.7729C30.9625 17.7729 30.2344 18.4704 30.2344 19.3309C30.2344 20.1913 30.9625 20.8888 31.8606 20.8888Z" fill="#424242"/>
<path id="Vector_8" d="M44.1522 26.688C43.8686 26.688 43.6239 26.4864 43.585 26.2103C43.5438 25.9101 43.7657 25.6362 44.0791 25.5968C44.1431 25.588 50.4926 24.7554 51.5448 21.1795C51.6294 20.888 51.9451 20.7171 52.2493 20.8004C52.5535 20.8815 52.7296 21.1838 52.645 21.4753C51.3893 25.7458 44.5182 26.6442 44.2254 26.6814C44.2003 26.6836 44.1751 26.6858 44.1522 26.6858V26.688Z" fill="#424242"/>
<path id="Vector_9" d="M23.7796 24.5235C23.7179 24.5235 23.6538 24.5235 23.5921 24.5169C21.9223 24.4095 20.8839 22.9042 20.8404 22.8385C20.6689 22.5843 20.7444 22.2447 21.0097 22.0803C21.275 21.916 21.6273 21.9883 21.7988 22.2403C21.8125 22.2622 22.5834 23.3578 23.6744 23.4235C24.3766 23.4651 25.1085 23.0685 25.8496 22.2403C26.0555 22.0102 26.4169 21.9839 26.657 22.1811C26.8972 22.3783 26.9246 22.7245 26.7188 22.9524C25.7856 23.9954 24.7997 24.5213 23.7819 24.5213L23.7796 24.5235Z" fill="#424242"/>
<path id="Vector_10" d="M28.5803 50.0002C28.2738 50.0002 28.02 49.768 28.0085 49.4721C27.8461 45.0592 32.5282 42.6007 32.7272 42.4977C33.004 42.3531 33.3516 42.4539 33.5003 42.7212C33.649 42.9885 33.5461 43.3194 33.267 43.4618C33.2236 43.4837 29.0126 45.7056 29.1499 49.4327C29.1613 49.7351 28.9143 49.9893 28.5986 50.0002C28.5918 50.0002 28.5849 50.0002 28.5781 50.0002H28.5803Z" fill="#424242"/>
<path id="Vector_11" d="M0.906551 47.9597C0.906551 47.9597 0.888253 47.9597 0.879104 47.9597C0.563457 47.9465 0.318716 47.688 0.334727 47.3878C0.55202 42.9704 4.85671 41.2044 5.03969 41.1321C5.33247 41.0159 5.66641 41.1474 5.78764 41.4279C5.90887 41.7083 5.77163 42.0282 5.47886 42.1444C5.31417 42.2101 1.65907 43.7286 1.47609 47.4404C1.46236 47.734 1.20847 47.9619 0.904264 47.9619L0.906551 47.9597Z" fill="#424242"/>
<path id="Vector_12" d="M22.4116 0.0220834C22.4116 0.0220834 22.7273 5.33999 27.8554 4.48325C27.8554 4.48325 28.4547 -0.365749 22.4116 0.0220834Z" fill="#22F400"/>
<path id="Vector_13" d="M32.8874 0.0860482C32.8874 0.0860482 32.5718 5.40396 27.4437 4.54722C27.4437 4.54722 26.8444 -0.301784 32.8874 0.0860482Z" fill="#22F400"/>
</g>
</svg>
