<svg width="43" height="42" viewBox="0 0 43 42" fill="none" xmlns="http://www.w3.org/2000/svg">
<g id="Button_Play">
<path id="Exclude" fill-rule="evenodd" clip-rule="evenodd" d="M21.672 42C33.27 42 42.672 32.598 42.672 21C42.672 9.40202 33.27 0 21.672 0C10.074 0 0.671997 9.40202 0.671997 21C0.671997 32.598 10.074 42 21.672 42ZM19.2704 14.1246L28.3704 20.4243C28.5594 20.5552 28.6721 20.7701 28.6721 20.9997C28.6721 21.2293 28.5594 21.4442 28.3704 21.5758L19.2704 27.8755C19.0562 28.0232 18.7776 28.0414 18.5473 27.9196C18.3163 27.7985 18.1721 27.5598 18.1721 27.2994L18.1721 14.6999C18.1721 14.4395 18.3163 14.2009 18.5473 14.0798C18.6495 14.0266 18.7608 14 18.8721 14C19.0121 14 19.1507 14.042 19.2704 14.1246Z" fill="#00C5FF"/>
</g>
</svg>
