<svg xmlns="http://www.w3.org/2000/svg" width="25" height="24" viewBox="0 0 25 24" fill="none">
<path d="M3.20654 9.00047V15.0005H7.20654L12.2065 20.0005V4.00047L7.20654 9.00047H3.20654ZM10.2065 8.83047V15.1705L8.03654 13.0005H5.20654V11.0005H8.03654L10.2065 8.83047ZM16.7065 12.0005C16.7065 10.2305 15.6865 8.71047 14.2065 7.97047V16.0205C15.6865 15.2905 16.7065 13.7705 16.7065 12.0005ZM14.2065 3.23047V5.29047C17.0965 6.15047 19.2065 8.83047 19.2065 12.0005C19.2065 15.1705 17.0965 17.8505 14.2065 18.7105V20.7705C18.2165 19.8605 21.2065 16.2805 21.2065 12.0005C21.2065 7.72047 18.2165 4.14047 14.2065 3.23047Z" fill="#1A81E8"/>
</svg>
