<svg width="25" height="24" viewBox="0 0 25 24" fill="none" xmlns="http://www.w3.org/2000/svg">
<g id="volume_off">
<path id="Vector" d="M4.54635 2.935L3.13635 4.345L7.49635 8.705L7.20635 9.005H3.20635V15.005H7.20635L12.2064 20.005V13.415L16.3864 17.595C15.7364 18.085 15.0064 18.475 14.2064 18.705V20.765C15.5464 20.465 16.7764 19.845 17.8164 19.015L19.8664 21.065L21.2764 19.655L4.54635 2.935ZM10.2064 15.175L8.03635 13.005H5.20635V11.005H8.03635L8.91635 10.125L10.2064 11.415V15.175ZM19.2064 12.005C19.2064 12.825 19.0564 13.615 18.7964 14.345L20.3264 15.875C20.8864 14.705 21.2064 13.395 21.2064 12.005C21.2064 7.725 18.2164 4.145 14.2064 3.235V5.295C17.0964 6.155 19.2064 8.835 19.2064 12.005ZM12.2064 4.005L10.3264 5.885L12.2064 7.765V4.005ZM16.7064 12.005C16.7064 10.235 15.6864 8.715 14.2064 7.975V9.765L16.6864 12.245C16.6964 12.165 16.7064 12.085 16.7064 12.005Z" fill="#BDBDBD"/>
</g>
</svg>
