<svg width="25" height="24" viewBox="0 0 25 24" fill="none" xmlns="http://www.w3.org/2000/svg">
<g id="volume_up">
<path id="Vector" d="M3.2063 8.99998V15H7.2063L12.2063 20V3.99998L7.2063 8.99998H3.2063ZM10.2063 8.82998V15.17L8.0363 13H5.2063V11H8.0363L10.2063 8.82998ZM16.7063 12C16.7063 10.23 15.6863 8.70998 14.2063 7.96998V16.02C15.6863 15.29 16.7063 13.77 16.7063 12ZM14.2063 3.22998V5.28998C17.0963 6.14998 19.2063 8.82998 19.2063 12C19.2063 15.17 17.0963 17.85 14.2063 18.71V20.77C18.2163 19.86 21.2063 16.28 21.2063 12C21.2063 7.71998 18.2163 4.13998 14.2063 3.22998Z" fill="#00C5FF"/>
</g>
</svg>
