<svg width="234" height="233" viewBox="0 0 234 233" fill="none"
  xmlns="http://www.w3.org/2000/svg">
  <g id="palette" opacity="0.5">
    <g id="Vector">
      <path d="M117 213.447C63.2775 213.447 19.5 169.552 19.5 115.685C19.5 61.8181 63.2775 17.9229 117 17.9229C170.722 17.9229 214.5 57.4188 214.5 105.909C214.5 138.268 188.272 164.566 156 164.566H138.742C136.012 164.566 133.867 166.717 133.867 169.454C133.867 170.627 134.355 171.703 135.135 172.68C139.132 177.275 141.375 183.043 141.375 189.007C141.375 202.498 130.455 213.447 117 213.447ZM117 37.4753C74.0025 37.4753 39 72.5719 39 115.685C39 158.798 74.0025 193.895 117 193.895C119.73 193.895 121.875 191.744 121.875 189.007C121.875 187.443 121.095 186.269 120.51 185.585C116.512 181.088 114.367 175.32 114.367 169.454C114.367 155.963 125.287 145.014 138.742 145.014H156C177.547 145.014 195 127.514 195 105.909C195 68.1726 159.997 37.4753 117 37.4753Z" fill="#9E9E9E"/>
      <path d="M63.375 125.461C71.4522 125.461 78 118.896 78 110.797C78 102.698 71.4522 96.1326 63.375 96.1326C55.2978 96.1326 48.75 102.698 48.75 110.797C48.75 118.896 55.2978 125.461 63.375 125.461Z" fill="#9E9E9E"/>
      <path d="M92.625 86.3564C100.702 86.3564 107.25 79.791 107.25 71.6921C107.25 63.5932 100.702 57.0277 92.625 57.0277C84.5478 57.0277 78 63.5932 78 71.6921C78 79.791 84.5478 86.3564 92.625 86.3564Z" fill="#9E9E9E"/>
      <path d="M141.375 86.3564C149.452 86.3564 156 79.791 156 71.6921C156 63.5932 149.452 57.0277 141.375 57.0277C133.298 57.0277 126.75 63.5932 126.75 71.6921C126.75 79.791 133.298 86.3564 141.375 86.3564Z" fill="#9E9E9E"/>
      <path d="M170.625 125.461C178.702 125.461 185.25 118.896 185.25 110.797C185.25 102.698 178.702 96.1326 170.625 96.1326C162.548 96.1326 156 102.698 156 110.797C156 118.896 162.548 125.461 170.625 125.461Z" fill="#9E9E9E"/>
    </g>
  </g>
</svg>
