<svg width="256" height="289" viewBox="0 0 256 289" fill="none" xmlns="http://www.w3.org/2000/svg">
<path d="M11.043 236C-8.95697 217.2 2.7097 198.5 11.043 191.5L128.043 119L128.043 289H123.543L11.043 236Z" fill="#2272DF"/>
<path d="M244.543 236C264.543 217.2 252.876 198.5 244.543 191.5L127.543 119L127.543 289H132.043L244.543 236Z" fill="#5054A9"/>
<path d="M128.171 251V0H113.171C105.571 0 102.338 6 101.671 9L56.6713 219.5C53.8713 228.3 60.5046 234.167 64.1713 236L128.171 251Z" fill="#1A81E8"/>
<path d="M128.171 251V0H143.171C150.771 0 154.004 6 154.671 9L199.671 219.5C202.471 228.3 195.837 234.167 192.171 236L128.171 251Z" fill="#4859B2"/>
<path d="M89.04 68H128.197V37H95.668L89.04 68Z" fill="#FAFAFA"/>
<path d="M161.064 37L167.29 68H128.178V37H161.064Z" fill="#EEEEEE"/>
<path d="M76 129H128.181V98H82.627L76 129Z" fill="#FAFAFA"/>
<path d="M173.676 98L180.329 129H128.181V98H173.676Z" fill="#EEEEEE"/>
</svg>
