<svg width="234" height="208" viewBox="0 0 234 208" fill="none" xmlns="http://www.w3.org/2000/svg">
<g clip-path="url(#clip0_1164_10480)">
<path d="M55.5675 121.548C48.6371 134.496 29.3719 140.642 33.5999 159.751C52.4553 208.879 135.483 198.549 167.455 187.036C230.799 164.232 197.772 37.3321 142.633 25.6743C111.648 17.8414 70.9767 22.2617 58.9909 74.8861C57.8143 79.2301 56.3721 93.8119 55.8256 98.4155C54.9982 105.386 57.3741 118.166 55.5675 121.548Z" fill="#FFBB00"/>
<path d="M82.5066 106.271C89.7298 106.271 95.5854 100.382 95.5854 93.1171C95.5854 85.8522 89.7298 79.9629 82.5066 79.9629C75.2833 79.9629 69.4277 85.8522 69.4277 93.1171C69.4277 100.382 75.2833 106.271 82.5066 106.271Z" fill="white"/>
<path d="M82.241 105.149C88.0598 105.149 92.7769 100.405 92.7769 94.5522C92.7769 88.6998 88.0598 83.9556 82.241 83.9556C76.4222 83.9556 71.7051 88.6998 71.7051 94.5522C71.7051 100.405 76.4222 105.149 82.241 105.149Z" fill="black"/>
<path d="M129.213 106.271C136.436 106.271 142.291 100.382 142.291 93.1171C142.291 85.8522 136.436 79.9629 129.213 79.9629C121.989 79.9629 116.134 85.8522 116.134 93.1171C116.134 100.382 121.989 106.271 129.213 106.271Z" fill="white"/>
<path d="M128.955 105.149C134.774 105.149 139.491 100.405 139.491 94.5522C139.491 88.6998 134.774 83.9556 128.955 83.9556C123.136 83.9556 118.419 88.6998 118.419 94.5522C118.419 100.405 123.136 105.149 128.955 105.149Z" fill="black"/>
<path d="M96.7169 107.119L114.935 106.729L106.41 119.853L96.5879 107.638" fill="white"/>
<path d="M106.41 121.769C105.84 121.769 105.294 121.51 104.937 121.059L95.1145 108.844C94.6667 108.287 94.5832 107.546 94.8337 106.92C94.9324 105.974 95.7142 105.233 96.6782 105.21L114.896 104.821C115.594 104.783 116.255 105.18 116.596 105.806C116.938 106.424 116.915 107.18 116.528 107.775L108.004 120.899C107.67 121.411 107.115 121.731 106.508 121.762C106.478 121.762 106.447 121.762 106.41 121.762V121.769ZM100.086 108.959L106.243 116.616L111.374 108.714L100.079 108.959H100.086Z" fill="black"/>
<path d="M101.65 204C101.65 204 101.589 204 101.559 204C100.512 203.954 99.6993 203.053 99.7525 202.007C100.474 186.616 114.759 180.463 115.367 180.211C116.338 179.806 117.446 180.265 117.849 181.242C118.251 182.219 117.796 183.334 116.824 183.738C116.277 183.967 104.147 189.258 103.54 202.191C103.495 203.214 102.652 204.008 101.643 204.008L101.65 204Z" fill="black"/>
<path d="M62.8697 202.091C62.8697 202.091 62.809 202.091 62.7787 202.091C61.7311 202.107 60.8658 201.267 60.8506 200.213C60.6153 184.807 74.4912 177.776 75.0832 177.478C76.0245 177.012 77.1631 177.402 77.6261 178.348C78.0892 179.295 77.702 180.44 76.7608 180.906C76.2294 181.173 64.4486 187.212 64.646 200.152C64.6612 201.175 63.8717 202.023 62.8697 202.084V202.091Z" fill="black"/>
<path d="M130.139 145.237C129.198 145.276 128.363 144.604 128.196 143.649C128.021 142.611 128.719 141.626 129.752 141.451C129.964 141.412 150.915 137.71 153.928 125.136C154.171 124.113 155.196 123.479 156.221 123.731C157.238 123.975 157.868 125.006 157.617 126.037C154.012 141.069 131.338 145.062 130.374 145.222C130.291 145.237 130.207 145.245 130.131 145.245L130.139 145.237Z" fill="black"/>
<path d="M90.9777 144.069C91.919 144.108 92.754 143.436 92.921 142.481C93.0956 141.443 92.3972 140.458 91.3649 140.283C91.1523 140.244 70.2019 136.542 67.1884 123.968C66.9455 122.945 65.9207 122.311 64.896 122.563C63.8788 122.807 63.2488 123.838 63.4993 124.869C67.1049 139.901 89.7784 143.894 90.7424 144.054C90.8259 144.069 90.9094 144.077 90.9853 144.077L90.9777 144.069Z" fill="black"/>
<path d="M97.2104 11.6344L100.717 26.3002C100.937 27.2316 101.803 27.8729 102.759 27.8042L127.148 26.0788C128.021 26.0177 128.75 25.3764 128.924 24.5061L131.763 10.4816C132.135 8.64931 130.002 7.38198 128.583 8.58823L124.241 12.2833C123.444 12.9628 122.252 12.8941 121.546 12.123L114.631 4.62594C113.713 3.62583 112.081 3.84723 111.458 5.06111L107.913 11.9627C107.382 12.9933 106.084 13.3445 105.12 12.7108L100.178 9.512C98.6982 8.55006 96.8081 9.90136 97.218 11.6267L97.2104 11.6344Z" fill="#FD6804"/>
</g>
<defs>
<clipPath id="clip0_1164_10480">
<rect width="169" height="200" fill="white" transform="translate(33 4)"/>
</clipPath>
</defs>
</svg>
