<svg width="18" height="18" viewBox="0 0 18 18" fill="none" xmlns="http://www.w3.org/2000/svg">
<path id="Vector" d="M10.701 6.03L9 7.731L7.299 6.03C6.948 5.679 6.381 5.679 6.03 6.03C5.679 6.381 5.679 6.948 6.03 7.299L7.731 9L6.03 10.701C5.679 11.052 5.679 11.619 6.03 11.97C6.381 12.321 6.948 12.321 7.299 11.97L9 10.269L10.701 11.97C11.052 12.321 11.619 12.321 11.97 11.97C12.321 11.619 12.321 11.052 11.97 10.701L10.269 9L11.97 7.299C12.321 6.948 12.321 6.381 11.97 6.03C11.619 5.688 11.043 5.688 10.701 6.03ZM9 0C4.023 0 0 4.023 0 9C0 13.977 4.023 18 9 18C13.977 18 18 13.977 18 9C18 4.023 13.977 0 9 0ZM9 16.2C5.031 16.2 1.8 12.969 1.8 9C1.8 5.031 5.031 1.8 9 1.8C12.969 1.8 16.2 5.031 16.2 9C16.2 12.969 12.969 16.2 9 16.2Z" fill="#757575"/>
</svg>
