<svg width="24" height="24" viewBox="0 0 24 24" fill="none" xmlns="http://www.w3.org/2000/svg">
<g id="build">
<path id="Vector" d="M22.6558 18.9896L13.5758 9.90961C14.5058 7.5696 14.0258 4.80961 12.1358 2.90961C9.83583 0.609605 6.25583 0.399605 3.70583 2.2596L7.54583 6.10961L6.12583 7.51961L2.29583 3.6896C0.435829 6.2296 0.645829 9.8196 2.94583 12.1096C4.80583 13.9696 7.51583 14.4596 9.83583 13.5896L18.9458 22.6996C19.3358 23.0896 19.9658 23.0896 20.3558 22.6996L22.6558 20.3996C23.0558 20.0196 23.0558 19.3896 22.6558 18.9896ZM19.6558 20.5896L10.1958 11.1296C9.58583 11.5796 8.90583 11.8496 8.19583 11.9496C6.83583 12.1496 5.40583 11.7396 4.36583 10.6996C3.41583 9.75961 2.97583 8.49961 3.04583 7.25961L6.13583 10.3496L10.3758 6.10961L7.28583 3.0196C8.52583 2.9496 9.77583 3.3896 10.7258 4.3296C11.8058 5.40961 12.2158 6.89961 11.9658 8.28961C11.8458 8.99961 11.5458 9.65961 11.0858 10.2496L20.5358 19.6996L19.6558 20.5896Z" fill="#BDBDBD"/>
</g>
</svg>
