<svg xmlns="http://www.w3.org/2000/svg" xmlns:xlink="http://www.w3.org/1999/xlink" width="500" zoomAndPan="magnify" viewBox="0 0 375 374.999991" height="500" preserveAspectRatio="xMidYMid meet" version="1.0"><defs><clipPath id="0baa1afb8e"><path d="M 0 72 L 374 72 L 374 305.109375 L 0 305.109375 Z M 0 72 " clip-rule="nonzero"/></clipPath></defs><g clip-path="url(#0baa1afb8e)"><path fill="#ffffff" d="M 324.71875 187.882812 C 310.117188 189.496094 293.121094 190.3125 274.210938 190.3125 C 274.195312 190.3125 274.183594 190.3125 274.171875 190.3125 C 269.78125 190.3125 265.492188 190.265625 261.375 190.191406 C 262.289062 193.046875 262.980469 196.070312 263.375 199.253906 C 264.777344 210.554688 262.191406 221.628906 255.671875 232.261719 C 258.285156 244.53125 257.433594 262.660156 240.273438 281.976562 C 227.273438 296.621094 206.175781 305.015625 182.394531 305.015625 C 170.679688 305.015625 158.882812 302.914062 148.515625 299.027344 C 141.382812 301.289062 130.207031 303.941406 116.980469 303.941406 C 101.640625 303.941406 87.074219 300.464844 73.675781 293.605469 C 72.207031 292.851562 70.773438 292.054688 69.382812 291.222656 C 64.894531 292.824219 60.316406 293.613281 55.558594 293.613281 C 47.390625 293.613281 38.835938 291.191406 30.132812 286.421875 C 7.710938 274.121094 1.941406 242.707031 1.050781 218.523438 C 0.121094 193.371094 4.105469 165.214844 10.964844 148.464844 C 15.894531 136.441406 24.242188 127.796875 35.101562 123.46875 C 44.300781 119.800781 53.574219 119.917969 60.820312 121.070312 C 72.28125 107.691406 88.753906 95.015625 106.683594 86.011719 C 132.65625 72.96875 158.15625 69.5625 178.484375 76.421875 C 192.839844 81.265625 202.691406 89.054688 207.757812 99.5625 C 207.964844 99.992188 208.164062 100.429688 208.355469 100.867188 C 234.347656 96.476562 289.0625 87.886719 321.722656 87.414062 C 322.027344 87.410156 322.316406 87.40625 322.601562 87.40625 C 354.097656 87.40625 372.039062 110.910156 373.488281 134.125 C 374.933594 157.265625 360.285156 183.960938 324.71875 187.882812 Z M 324.71875 187.882812 " fill-opacity="1" fill-rule="nonzero"/></g><path fill="#000000" d="M 358.289062 135.070312 C 357.277344 118.859375 344.707031 102.617188 322.601562 102.617188 C 322.382812 102.617188 322.164062 102.617188 321.941406 102.621094 C 279.648438 103.234375 197.378906 118.210938 196.550781 118.363281 C 196.46875 118.378906 196.390625 118.40625 196.308594 118.433594 C 196.492188 114.113281 195.875 109.980469 194.035156 106.160156 C 190.765625 99.378906 184.085938 94.367188 173.609375 90.832031 C 157.171875 85.285156 135.835938 88.398438 113.527344 99.601562 C 93.726562 109.542969 76.253906 124.25 66.804688 138.25 C 62.574219 136.703125 51.273438 133.398438 40.75 137.59375 C 33.714844 140.398438 28.4375 145.992188 25.0625 154.222656 C 13.886719 181.515625 8.65625 257.28125 37.464844 273.082031 C 44.523438 276.957031 50.480469 278.398438 55.558594 278.398438 C 61.847656 278.398438 66.78125 276.183594 70.796875 273.644531 C 73.570312 275.949219 76.816406 278.113281 80.625 280.0625 C 93.425781 286.621094 106.042969 288.726562 116.976562 288.726562 C 132.441406 288.722656 144.527344 284.507812 148.960938 282.714844 C 158.707031 287.308594 170.535156 289.800781 182.394531 289.800781 C 200.109375 289.800781 217.890625 284.25 228.878906 271.878906 C 244.136719 254.703125 242.984375 239.582031 239.003906 229.582031 C 246.324219 220.238281 249.445312 210.6875 248.257812 201.121094 C 246.683594 188.453125 238 178.9375 232.164062 173.855469 C 242.753906 174.464844 257.746094 175.097656 274.210938 175.097656 C 290.011719 175.097656 307.164062 174.511719 323.046875 172.761719 C 348.835938 169.917969 359.328125 151.78125 358.289062 135.070312 Z M 82.480469 276.453125 C 49.695312 259.664062 61.71875 226.808594 62.261719 225.386719 C 62.660156 224.339844 62.136719 223.167969 61.089844 222.765625 C 60.042969 222.367188 58.867188 222.890625 58.46875 223.933594 C 58.34375 224.253906 48.335938 251.355469 67.679688 270.796875 C 61.191406 274.632812 52.671875 276.792969 39.421875 269.527344 C 14.339844 255.773438 16.9375 184.785156 28.820312 155.757812 C 31.757812 148.597656 36.269531 143.753906 42.234375 141.371094 C 50.78125 137.949219 60.324219 140.355469 64.582031 141.78125 C 62.902344 144.667969 61.589844 147.503906 60.699219 150.238281 C 51.222656 179.472656 58.011719 193.53125 58.304688 194.113281 C 58.804688 195.113281 60.019531 195.507812 61.019531 195.019531 C 62.019531 194.523438 62.429688 193.308594 61.9375 192.304688 C 61.875 192.175781 55.664062 178.9375 64.566406 151.488281 C 65.515625 148.554688 67.035156 145.460938 69.027344 142.292969 C 69.238281 142.105469 69.414062 141.878906 69.535156 141.609375 C 69.5625 141.546875 69.578125 141.476562 69.601562 141.414062 C 78.5 127.808594 95.980469 112.953125 115.351562 103.222656 C 136.683594 92.511719 156.914062 89.476562 172.308594 94.671875 C 181.695312 97.839844 187.605469 102.171875 190.375 107.917969 C 194.976562 117.464844 190.503906 129.800781 185.769531 142.859375 C 183.066406 150.316406 180.273438 158.023438 179.304688 165.257812 C 177.96875 175.273438 178.972656 183.023438 179.78125 189.25 C 181.105469 199.421875 181.652344 203.632812 171.292969 207.019531 C 162.5 209.894531 147.703125 206.710938 138.164062 196.414062 C 127.070312 184.433594 125.832031 166.152344 134.664062 144.9375 C 135.097656 143.902344 134.605469 142.714844 133.570312 142.285156 C 132.53125 141.855469 131.347656 142.34375 130.914062 143.378906 C 121.839844 165.175781 124.226562 180.269531 128.910156 189.9375 C 128.878906 189.992188 128.839844 190.042969 128.8125 190.101562 C 126.535156 194.757812 125.054688 199.324219 124.335938 203.746094 C 124.304688 203.828125 124.269531 203.902344 124.25 203.988281 C 123.832031 205.617188 123.503906 207.226562 123.1875 208.78125 C 121.433594 217.363281 119.78125 225.464844 103.578125 235.886719 C 102.636719 236.496094 102.363281 237.75 102.972656 238.691406 C 103.359375 239.296875 104.011719 239.621094 104.679688 239.621094 C 105.058594 239.621094 105.4375 239.519531 105.777344 239.300781 C 117.828125 231.546875 122.535156 224.734375 124.894531 218.320312 C 125.71875 221.492188 127.015625 224.519531 128.777344 227.382812 C 128.675781 227.511719 128.582031 227.648438 128.511719 227.804688 C 119 248.445312 123.980469 267.085938 142.171875 278.953125 C 142.816406 279.375 143.476562 279.78125 144.148438 280.179688 C 133.722656 283.75 108.492188 289.777344 82.480469 276.453125 Z M 225.839844 269.1875 C 207 290.402344 166.585938 290.035156 144.390625 275.558594 C 135.007812 269.441406 121.101562 255.621094 131.464844 231.183594 C 133.980469 234.292969 137.109375 237.160156 140.84375 239.734375 C 152.429688 247.730469 169.183594 252.226562 185.980469 252.226562 C 204.601562 252.226562 223.277344 246.695312 234.984375 234.261719 C 235.328125 233.898438 235.644531 233.535156 235.972656 233.171875 C 239.878906 245.09375 236.496094 257.195312 225.839844 269.1875 Z M 322.601562 168.730469 C 275.625 173.914062 217.375 168.777344 216.789062 168.726562 C 215.652344 168.640625 214.683594 169.449219 214.585938 170.5625 C 214.484375 171.679688 215.308594 172.664062 216.425781 172.765625 C 216.558594 172.777344 219.6875 173.054688 225 173.414062 C 227.605469 175.210938 242.304688 186.007812 244.230469 201.648438 C 245.300781 210.339844 242.269531 219.136719 235.210938 227.84375 C 235.191406 227.863281 235.179688 227.882812 235.160156 227.902344 C 234.191406 229.097656 233.148438 230.289062 232.027344 231.480469 C 222.722656 241.359375 207.070312 247.414062 189.085938 248.101562 C 171.902344 248.753906 154.722656 244.378906 143.152344 236.398438 C 128.203125 226.082031 124.078125 211.195312 131.363281 194.273438 C 132.632812 196.210938 133.949219 197.839844 135.179688 199.167969 C 143.511719 208.164062 154.917969 212.085938 164.257812 212.085938 C 167.304688 212.085938 170.128906 211.667969 172.558594 210.875 C 186.113281 206.445312 185.148438 199.011719 183.808594 188.726562 C 183.582031 186.964844 183.339844 185.054688 183.140625 183.023438 C 187.738281 181.882812 201.402344 179.070312 212.230469 182.671875 C 213.300781 183.027344 214.445312 182.449219 214.800781 181.386719 C 215.152344 180.324219 214.578125 179.175781 213.515625 178.820312 C 202.058594 175.015625 188.332031 177.589844 182.824219 178.914062 C 182.621094 175.027344 182.675781 170.683594 183.328125 165.792969 C 184.238281 158.996094 186.957031 151.492188 189.585938 144.238281 C 192.273438 136.835938 195.003906 129.292969 195.972656 122.144531 C 196.359375 122.351562 196.8125 122.4375 197.28125 122.351562 C 198.105469 122.203125 280.046875 107.285156 322 106.679688 C 342.9375 106.375 353.359375 121.3125 354.230469 135.320312 C 355.15625 150.113281 345.730469 166.179688 322.601562 168.730469 Z M 322.601562 168.730469 " fill-opacity="1" fill-rule="nonzero"/></svg>