<svg xmlns="http://www.w3.org/2000/svg" xmlns:xlink="http://www.w3.org/1999/xlink" width="500" zoomAndPan="magnify" viewBox="0 0 375 374.999991" height="500" preserveAspectRatio="xMidYMid meet" version="1.0"><defs><clipPath id="ce9daefa92"><path d="M 112 13 L 227 13 L 227 150 L 112 150 Z M 112 13 " clip-rule="nonzero"/></clipPath><clipPath id="925d44c65c"><path d="M 224.984375 -3.828125 L 337.488281 321.515625 L 149.652344 386.46875 L 37.148438 61.125 Z M 224.984375 -3.828125 " clip-rule="nonzero"/></clipPath><clipPath id="1178217247"><path d="M 224.984375 -3.828125 L 337.488281 321.515625 L 149.652344 386.46875 L 37.148438 61.125 Z M 224.984375 -3.828125 " clip-rule="nonzero"/></clipPath><clipPath id="64bdb216d8"><path d="M 224.984375 -3.828125 L 337.488281 321.515625 L 149.652344 386.46875 L 37.148438 61.125 Z M 224.984375 -3.828125 " clip-rule="nonzero"/></clipPath><clipPath id="945eeb8361"><path d="M 120 166 L 286 166 L 286 235 L 120 235 Z M 120 166 " clip-rule="nonzero"/></clipPath><clipPath id="fa3ca26eb9"><path d="M 224.984375 -3.828125 L 337.488281 321.515625 L 149.652344 386.46875 L 37.148438 61.125 Z M 224.984375 -3.828125 " clip-rule="nonzero"/></clipPath><clipPath id="9bb8c61ae8"><path d="M 224.984375 -3.828125 L 337.488281 321.515625 L 149.652344 386.46875 L 37.148438 61.125 Z M 224.984375 -3.828125 " clip-rule="nonzero"/></clipPath><clipPath id="5b561632ea"><path d="M 224.984375 -3.828125 L 337.488281 321.515625 L 149.652344 386.46875 L 37.148438 61.125 Z M 224.984375 -3.828125 " clip-rule="nonzero"/></clipPath><clipPath id="a197a63b5b"><path d="M 101 232 L 241 232 L 241 368 L 101 368 Z M 101 232 " clip-rule="nonzero"/></clipPath><clipPath id="0714ba6f66"><path d="M 224.984375 -3.828125 L 337.488281 321.515625 L 149.652344 386.46875 L 37.148438 61.125 Z M 224.984375 -3.828125 " clip-rule="nonzero"/></clipPath><clipPath id="39211c75ef"><path d="M 224.984375 -3.828125 L 337.488281 321.515625 L 149.652344 386.46875 L 37.148438 61.125 Z M 224.984375 -3.828125 " clip-rule="nonzero"/></clipPath><clipPath id="9916e09d65"><path d="M 224.984375 -3.828125 L 337.488281 321.515625 L 149.652344 386.46875 L 37.148438 61.125 Z M 224.984375 -3.828125 " clip-rule="nonzero"/></clipPath></defs><g clip-path="url(#ce9daefa92)"><g clip-path="url(#925d44c65c)"><g clip-path="url(#1178217247)"><g clip-path="url(#64bdb216d8)"><path fill="#ffd400" d="M 224.679688 41.621094 C 222.359375 38.597656 218.835938 36.632812 215.722656 34.519531 C 212.804688 32.457031 209.855469 30.46875 206.988281 28.386719 C 200.871094 24.128906 194.738281 19.820312 188.671875 15.542969 C 183.082031 11.628906 176.851562 13.085938 173.410156 18.910156 C 154.902344 49.816406 138.207031 81.777344 123.394531 114.648438 C 121.804688 118.269531 115.429688 132.234375 113.875 137.636719 C 107.730469 158.648438 130.757812 146.515625 135.074219 143.050781 C 152.804688 128.695312 168.605469 112.109375 184.335938 95.660156 C 191.96875 87.691406 199.585938 79.667969 207.449219 71.851562 C 209.128906 70.171875 210.863281 68.46875 212.613281 66.820312 C 213.492188 65.996094 214.453125 65.085938 215.378906 64.242188 C 215.859375 63.789062 216.394531 63.3125 216.855469 62.804688 C 216.941406 62.71875 217.304688 62.417969 217.5625 62.15625 C 216.824219 62.875 218.539062 61.296875 218.539062 61.296875 C 218.9375 60.929688 219.347656 60.613281 219.742188 60.242188 C 220.945312 59.191406 222.289062 58.203125 223.367188 56.960938 C 226.984375 52.816406 228.269531 46.289062 224.679688 41.621094 Z M 224.679688 41.621094 " fill-opacity="1" fill-rule="nonzero"/></g></g></g></g><g clip-path="url(#945eeb8361)"><g clip-path="url(#fa3ca26eb9)"><g clip-path="url(#9bb8c61ae8)"><g clip-path="url(#5b561632ea)"><path fill="#ffd400" d="M 281.378906 226.402344 C 282.832031 222.539062 282.59375 218.160156 282.863281 214.070312 C 283.101562 210.222656 283.265625 206.34375 283.574219 202.527344 C 284.042969 194.488281 284.476562 186.34375 285 178.28125 C 285.40625 170.898438 280.515625 165.988281 273.195312 166.144531 C 234.074219 166.808594 195.09375 169.746094 156.3125 174.929688 C 152.054688 175.53125 135.492188 177.667969 129.664062 179.277344 C 106.75 185.695312 131.097656 199.871094 136.792969 201.898438 C 160.15625 210.039062 184.441406 215.140625 208.605469 220.226562 C 220.304688 222.667969 232.070312 225.144531 243.757812 227.882812 C 246.277344 228.460938 248.871094 229.070312 251.375 229.769531 C 252.644531 230.082031 254.035156 230.414062 255.324219 230.777344 C 256.019531 230.945312 256.730469 231.160156 257.480469 231.308594 C 257.601562 231.324219 258.070312 231.507812 258.503906 231.589844 C 257.425781 231.324219 259.863281 231.988281 259.863281 231.988281 C 260.4375 232.136719 260.957031 232.304688 261.53125 232.453125 C 263.203125 232.921875 264.890625 233.609375 266.628906 233.9375 C 272.382812 234.960938 279.101562 232.402344 281.378906 226.402344 Z M 281.378906 226.402344 " fill-opacity="1" fill-rule="nonzero"/></g></g></g></g><g clip-path="url(#a197a63b5b)"><g clip-path="url(#0714ba6f66)"><g clip-path="url(#39211c75ef)"><g clip-path="url(#9916e09d65)"><path fill="#ffd400" d="M 203.613281 366.265625 C 207.179688 364.160156 209.796875 360.648438 212.523438 357.621094 C 215.128906 354.75 217.734375 351.878906 220.308594 349.078125 C 225.792969 343.125 231.246094 337.070312 236.683594 331.136719 C 241.6875 325.636719 240.9375 318.769531 235.203125 314.265625 C 204.417969 290.207031 172.285156 267.949219 138.941406 247.558594 C 135.273438 245.351562 121.046875 236.601562 115.503906 234.171875 C 93.722656 224.726562 103.59375 251.09375 106.753906 256.199219 C 119.707031 277.210938 135.367188 296.476562 150.917969 315.601562 C 158.421875 324.882812 166.050781 334.183594 173.382812 343.636719 C 174.964844 345.699219 176.566406 347.808594 178.097656 349.886719 C 178.871094 350.953125 179.714844 352.050781 180.507812 353.167969 C 180.949219 353.765625 181.390625 354.367188 181.8125 354.917969 C 181.898438 355.003906 182.164062 355.433594 182.410156 355.8125 C 181.757812 354.933594 183.21875 356.980469 183.21875 356.980469 C 183.554688 357.441406 183.835938 357.925781 184.222656 358.371094 C 185.226562 359.761719 186.078125 361.378906 187.234375 362.714844 C 191.238281 367.242188 198.097656 369.445312 203.613281 366.265625 Z M 203.613281 366.265625 " fill-opacity="1" fill-rule="nonzero"/></g></g></g></g></svg>