<svg width="25" height="24" viewBox="0 0 25 24" fill="none" xmlns="http://www.w3.org/2000/svg">
<path d="M12.5 14.5C14.16 14.5 15.5 13.16 15.5 11.5V5.5C15.5 3.84 14.16 2.5 12.5 2.5C10.84 2.5 9.5 3.84 9.5 5.5V11.5C9.5 13.16 10.84 14.5 12.5 14.5ZM11.5 5.5C11.5 4.95 11.95 4.5 12.5 4.5C13.05 4.5 13.5 4.95 13.5 5.5V11.5C13.5 12.05 13.05 12.5 12.5 12.5C11.95 12.5 11.5 12.05 11.5 11.5V5.5ZM17.5 11.5C17.5 14.26 15.26 16.5 12.5 16.5C9.74 16.5 7.5 14.26 7.5 11.5H5.5C5.5 15.03 8.11 17.93 11.5 18.42V21.5H13.5V18.42C16.89 17.93 19.5 15.03 19.5 11.5H17.5Z" fill="#1A81E8"/>
</svg>
