<svg width="36" height="36" viewBox="0 0 36 36" fill="none" xmlns="http://www.w3.org/2000/svg">
<g id="mic_none">
<path id="Vector" d="M18 21.75C20.49 21.75 22.5 19.74 22.5 17.25V8.25C22.5 5.76 20.49 3.75 18 3.75C15.51 3.75 13.5 5.76 13.5 8.25V17.25C13.5 19.74 15.51 21.75 18 21.75ZM16.5 8.25C16.5 7.425 17.175 6.75 18 6.75C18.825 6.75 19.5 7.425 19.5 8.25V17.25C19.5 18.075 18.825 18.75 18 18.75C17.175 18.75 16.5 18.075 16.5 17.25V8.25ZM25.5 17.25C25.5 21.39 22.14 24.75 18 24.75C13.86 24.75 10.5 21.39 10.5 17.25H7.5C7.5 22.545 11.415 26.895 16.5 27.63V32.25H19.5V27.63C24.585 26.895 28.5 22.545 28.5 17.25H25.5Z" fill="#00C5FF"/>
</g>
</svg>
