<svg width="25" height="24" viewBox="0 0 25 24" fill="none" xmlns="http://www.w3.org/2000/svg">
<g id="timer">
<path id="Vector" d="M15.5 1.5H9.5V3.5H15.5V1.5ZM11.5 14.5H13.5V8.5H11.5V14.5ZM19.53 7.89L20.95 6.47C20.52 5.96 20.05 5.48 19.54 5.06L18.12 6.48C16.57 5.24 14.62 4.5 12.5 4.5C7.53 4.5 3.5 8.53 3.5 13.5C3.5 18.47 7.52 22.5 12.5 22.5C17.48 22.5 21.5 18.47 21.5 13.5C21.5 11.38 20.76 9.43 19.53 7.89ZM12.5 20.5C8.63 20.5 5.5 17.37 5.5 13.5C5.5 9.63 8.63 6.5 12.5 6.5C16.37 6.5 19.5 9.63 19.5 13.5C19.5 17.37 16.37 20.5 12.5 20.5Z" fill="#FAFAFA"/>
</g>
</svg>
